<svg version="1.1" id="el_TgwVjHdOp" xmlns="http://www.w3.org/2000/svg" xmlns:xlink="http://www.w3.org/1999/xlink" x="0px" y="0px" viewBox="0 0 217 231" style="enable-background:new 0 0 217.4 231.4;" xml:space="preserve" height="231" width="217"><style>@-webkit-keyframes el_TsPXkOARR6f_oTZUqt9bU_Animation{0%{-webkit-transform: rotate(0deg);transform: rotate(0deg);}36.67%{-webkit-transform: rotate(-2deg);transform: rotate(-2deg);}70%{-webkit-transform: rotate(2deg);transform: rotate(2deg);}100%{-webkit-transform: rotate(0deg);transform: rotate(0deg);}}@keyframes el_TsPXkOARR6f_oTZUqt9bU_Animation{0%{-webkit-transform: rotate(0deg);transform: rotate(0deg);}36.67%{-webkit-transform: rotate(-2deg);transform: rotate(-2deg);}70%{-webkit-transform: rotate(2deg);transform: rotate(2deg);}100%{-webkit-transform: rotate(0deg);transform: rotate(0deg);}}@-webkit-keyframes el_D1wJ_F5f_M1_GzR1RLfcV_Animation{0%{-webkit-transform: scale(1, 1);transform: scale(1, 1);}23.33%{-webkit-transform: scale(1, 0.98);transform: scale(1, 0.98);}62.67%{-webkit-transform: scale(1, 1.05);transform: scale(1, 1.05);}100%{-webkit-transform: scale(1, 1);transform: scale(1, 1);}}@keyframes el_D1wJ_F5f_M1_GzR1RLfcV_Animation{0%{-webkit-transform: scale(1, 1);transform: scale(1, 1);}23.33%{-webkit-transform: scale(1, 0.98);transform: scale(1, 0.98);}62.67%{-webkit-transform: scale(1, 1.05);transform: scale(1, 1.05);}100%{-webkit-transform: scale(1, 1);transform: scale(1, 1);}}@-webkit-keyframes el_D1wJ_F5f_M1_bMI6drs2z_Animation{0%{-webkit-transform: rotate(0deg);transform: rotate(0deg);}40%{-webkit-transform: rotate(2deg);transform: rotate(2deg);}80%{-webkit-transform: rotate(-2deg);transform: rotate(-2deg);}100%{-webkit-transform: rotate(0deg);transform: rotate(0deg);}}@keyframes el_D1wJ_F5f_M1_bMI6drs2z_Animation{0%{-webkit-transform: rotate(0deg);transform: rotate(0deg);}40%{-webkit-transform: rotate(2deg);transform: rotate(2deg);}80%{-webkit-transform: rotate(-2deg);transform: rotate(-2deg);}100%{-webkit-transform: rotate(0deg);transform: rotate(0deg);}}@-webkit-keyframes el_8NwE7kKbcj_qLhmyLlT__Animation{0%{-webkit-transform: scale(1, 1);transform: scale(1, 1);}44.67%{-webkit-transform: scale(1, 1);transform: scale(1, 1);}80%{-webkit-transform: scale(1, 1);transform: scale(1, 1);}100%{-webkit-transform: scale(1, 1);transform: scale(1, 1);}}@keyframes el_8NwE7kKbcj_qLhmyLlT__Animation{0%{-webkit-transform: scale(1, 1);transform: scale(1, 1);}44.67%{-webkit-transform: scale(1, 1);transform: scale(1, 1);}80%{-webkit-transform: scale(1, 1);transform: scale(1, 1);}100%{-webkit-transform: scale(1, 1);transform: scale(1, 1);}}@-webkit-keyframes el_ka4mU1LsVE_rwGdMzbQg_Animation{0%{-webkit-transform: scale(1, 1);transform: scale(1, 1);}12%{-webkit-transform: scale(1, 0.96);transform: scale(1, 0.96);}80%{-webkit-transform: scale(1, 1);transform: scale(1, 1);}100%{-webkit-transform: scale(1, 1);transform: scale(1, 1);}}@keyframes el_ka4mU1LsVE_rwGdMzbQg_Animation{0%{-webkit-transform: scale(1, 1);transform: scale(1, 1);}12%{-webkit-transform: scale(1, 0.96);transform: scale(1, 0.96);}80%{-webkit-transform: scale(1, 1);transform: scale(1, 1);}100%{-webkit-transform: scale(1, 1);transform: scale(1, 1);}}@-webkit-keyframes el_8NwE7kKbcj_dzGu4GPLh_Animation{0%{-webkit-transform: rotate(0deg);transform: rotate(0deg);}12%{-webkit-transform: rotate(10deg);transform: rotate(10deg);}30%{-webkit-transform: rotate(10deg);transform: rotate(10deg);}44.67%{-webkit-transform: rotate(-8deg);transform: rotate(-8deg);}80%{-webkit-transform: rotate(0deg);transform: rotate(0deg);}100%{-webkit-transform: rotate(0deg);transform: rotate(0deg);}}@keyframes el_8NwE7kKbcj_dzGu4GPLh_Animation{0%{-webkit-transform: rotate(0deg);transform: rotate(0deg);}12%{-webkit-transform: rotate(10deg);transform: rotate(10deg);}30%{-webkit-transform: rotate(10deg);transform: rotate(10deg);}44.67%{-webkit-transform: rotate(-8deg);transform: rotate(-8deg);}80%{-webkit-transform: rotate(0deg);transform: rotate(0deg);}100%{-webkit-transform: rotate(0deg);transform: rotate(0deg);}}#el_TgwVjHdOp *{-webkit-animation-duration: 5s;animation-duration: 5s;-webkit-animation-iteration-count: infinite;animation-iteration-count: infinite;-webkit-animation-timing-function: cubic-bezier(0, 0, 1, 1);animation-timing-function: cubic-bezier(0, 0, 1, 1);}#el_hyA15ysuv1{fill: #111111;}#el_xWj6nqZWBt{fill: #EFC03C;}#el_aaR5s9qR7I{fill: #111111;}#el_jTmWLJGCk2{fill: #FAD34F;}#el_aWyCTze8ef{fill: #5449C1;}#el_RrBvlZ7rhw{fill: #F6A091;}#el_faGOhFIAmH{fill: #111111;}#el_Sh0EsncUtV{fill: #111111;}#el_q-v1ZZOUaU{fill: #F6A091;}#el_BqVW8_YIYS{fill: #7167CB;}#el_PfwUQlAJ7s{fill: #7167CB;}#el__n9_Lpt30X{fill: #F6A091;}#el_Mqw9iGBGZq{fill: #F6A091;}#el_TsPXkOARR6f{fill: #115B33;}#el_D1wJ_F5f_M1{fill: #70AA55;}#el_8NwE7kKbcj_dzGu4GPLh{-webkit-animation-name: el_8NwE7kKbcj_dzGu4GPLh_Animation;animation-name: el_8NwE7kKbcj_dzGu4GPLh_Animation;-webkit-transform-origin: 50% 100%;transform-origin: 50% 100%;transform-box: fill-box;-webkit-transform: rotate(0deg);transform: rotate(0deg);-webkit-animation-timing-function: cubic-bezier(0.42, 0, 0.58, 1);animation-timing-function: cubic-bezier(0.42, 0, 0.58, 1);}#el_ka4mU1LsVE_rwGdMzbQg{-webkit-transform-origin: 50% 100%;transform-origin: 50% 100%;transform-box: fill-box;-webkit-transform: scale(1, 1);transform: scale(1, 1);-webkit-animation-name: el_ka4mU1LsVE_rwGdMzbQg_Animation;animation-name: el_ka4mU1LsVE_rwGdMzbQg_Animation;-webkit-animation-timing-function: cubic-bezier(0.42, 0, 0.58, 1);animation-timing-function: cubic-bezier(0.42, 0, 0.58, 1);}#el_8NwE7kKbcj_qLhmyLlT_{-webkit-transform-origin: 50% 100%;transform-origin: 50% 100%;transform-box: fill-box;-webkit-animation-name: el_8NwE7kKbcj_qLhmyLlT__Animation;animation-name: el_8NwE7kKbcj_qLhmyLlT__Animation;-webkit-animation-timing-function: cubic-bezier(0.42, 0, 0.58, 1);animation-timing-function: cubic-bezier(0.42, 0, 0.58, 1);-webkit-transform: scale(1, 1);transform: scale(1, 1);}#el_D1wJ_F5f_M1_bMI6drs2z{-webkit-animation-name: el_D1wJ_F5f_M1_bMI6drs2z_Animation;animation-name: el_D1wJ_F5f_M1_bMI6drs2z_Animation;-webkit-transform-origin: 50% 100%;transform-origin: 50% 100%;transform-box: fill-box;-webkit-transform: rotate(0deg);transform: rotate(0deg);}#el_D1wJ_F5f_M1_GzR1RLfcV{-webkit-animation-name: el_D1wJ_F5f_M1_GzR1RLfcV_Animation;animation-name: el_D1wJ_F5f_M1_GzR1RLfcV_Animation;-webkit-transform-origin: 50% 100%;transform-origin: 50% 100%;transform-box: fill-box;-webkit-transform: scale(1, 1);transform: scale(1, 1);}#el_TsPXkOARR6f_oTZUqt9bU{-webkit-animation-name: el_TsPXkOARR6f_oTZUqt9bU_Animation;animation-name: el_TsPXkOARR6f_oTZUqt9bU_Animation;-webkit-transform-origin: 50% 100%;transform-origin: 50% 100%;transform-box: fill-box;-webkit-transform: rotate(0deg);transform: rotate(0deg);}</style>

<g id="el_ka4mU1LsVE_rwGdMzbQg" data-animator-group="true" data-animator-type="2"><g id="el_ka4mU1LsVE">
	<path d="M138.4,176.3c0,0-5.5,2.5-6.7,2.7c-1.2,0.3-6.4,0.7-6.5,1.7c-0.1,1.1,1.4,1.9,1.4,1.9l17.7-0.7l-0.7-4.9&#10;&#9;&#9;L138.4,176.3z" id="el_hyA15ysuv1"/>
	<polygon points="135.1,105.8 132.4,138.1 135,175.5 144.2,179.7 146,131.6 156.3,107.5 146,96.4 139.3,95.6 &#9;" id="el_xWj6nqZWBt"/>
	<path d="M163.2,178.9c0,0-5.3,3.5-5.9,3.6c-0.6,0.1-4.7,1.3-5.3,2.1c-0.5,0.8,1.1,1.6,1.1,1.6l17.5-0.4l-0.5-4.1&#10;&#9;&#9;l-1.4-2.2L163.2,178.9z" id="el_aaR5s9qR7I"/>
	<polygon points="136.1,106.2 148.6,146.7 160.7,178.9 170.1,181.6 165.6,152 156.3,107.5 147.3,94.9 142.7,94.7 &#9;" id="el_jTmWLJGCk2"/>
</g></g>
<g id="el_8NwE7kKbcj_dzGu4GPLh" data-animator-group="true" data-animator-type="1"><g id="el_8NwE7kKbcj_qLhmyLlT_" data-animator-group="true" data-animator-type="2"><g id="el_8NwE7kKbcj">
	<path d="M130.2,48.5c-0.4,0-0.8,0.2-1.2,0.4c-1.1,0.6-2.3,1.2-3.2,2.1c-0.9,0.9-1.7,2-1.8,3.3&#10;&#9;&#9;c-0.1,1.6,0.7,3.1,1.9,4.3c1.2,1.1,2.6,1.9,3.9,2.8c1.7,1.1,3.2,2.4,5,3.5c1.7,1.1,3.6,2,5.6,2.1c0.7,0.1,1.4,0,2-0.2&#10;&#9;&#9;c1-0.4,1.7-1.4,2.1-2.5c0.3-1.1,0.4-2.2,0.4-3.3c0.1-2.3,0.1-4.8-0.9-6.8c-0.4-0.8-0.9-1.4-1.4-2.1c-0.3-0.4-0.7-0.8-1.1-1.1&#10;&#9;&#9;c-0.4-0.2-0.8-0.4-1.2-0.6c-1.7-0.7-3.4-1.3-5.2-1.5c-0.9-0.1-1.8-0.1-2.7,0C131.7,49,131,48.4,130.2,48.5z" id="el_aWyCTze8ef"/>
	<path d="M141.6,57.1c-0.3-0.3-0.6-0.7-0.8-1c-0.5,0.3-1,0.7-1.6,0.9c-0.8,0.4-1.8,0.4-2.7,0c-1.4-0.6-2.8-1.2-3.7-2.4&#10;&#9;&#9;c-0.7-0.8-1.1-1.9-1.4-2.9c-0.7-2.4-0.8-5-0.3-7.4c0.2-1.1,0.5-1.9,1.2-2.6c0.6-0.6,1.6-0.9,2.4-0.7c0.2,1.2,0.3,2.5,0.2,3.8&#10;&#9;&#9;c1.2,0.3,2.3,0.9,3.3,1.5c0.3-1.4,0.9-3.1,2.4-3.1c1,0,1.8,0.9,1.9,1.9c0.2,1.2,0.4,1.6-0.3,2.6c2.5-0.7,4.7,1.4,5.8,3.8&#10;&#9;&#9;C145.9,53,143.8,55.6,141.6,57.1z" id="el_RrBvlZ7rhw"/>
	<path d="M124.3,48.4l-6.1,0.7l0.1,0.9h-0.8l-0.3-1.3l-4.1,0.4l1,6.5l3.8-0.4l-0.1-1.4l0.9-0.1l0.1,0.9l5.3-1.2&#10;&#9;&#9;c0,0,0.7,2.1,0.9,1.9s6.6-1.4,6.6-1.4l-2-8.5c-0.3-1.4-1.7-2.3-3-2l-0.8,0.2c-1.5,0.3-2.4,1.7-2.1,3.2L124.3,48.4z" id="el_faGOhFIAmH"/>
	<path d="M131.6,39.4c-1.9,1.3-3.8,2.5-5.9,3.5c2.4,1.4,5.4,1.2,7.7-0.3c0.1,0.8,0.2,1.7,0.2,2.5c1.5,0.6,3,1.1,4.4,1.7&#10;&#9;&#9;c0.3-0.8,0.6-1.7,1.2-2.3c0.6-0.6,1.7-0.9,2.4-0.4c0.6,0.4,0.8,1.3,0.7,2c-0.1,0.7-0.5,1.4-0.9,2c2.5,0.1,5,1.4,6.5,3.5&#10;&#9;&#9;c-1.1-2.2,0.2-5-0.3-7.4c-0.2-1-0.7-1.9-1.2-2.7c-1.1-1.7-2.4-3.3-4.1-4.3c-1.7-1.1-3.8-1.6-5.7-1.2&#10;&#9;&#9;C134.8,36.4,133.3,38.2,131.6,39.4z" id="el_Sh0EsncUtV"/>
	<path d="M127.3,52.4c-1.1-0.9-2.4-1.6-3.8-2c-0.2-0.1-0.4-0.1-0.6-0.1c-0.2,0-0.4,0.1-0.5,0.3c-0.1,0.2,0,0.5,0.2,0.8&#10;&#9;&#9;c0.5,0.7,1.3,1.3,2.1,1.8c-0.9,0-1.8,0.1-2.7,0.2c-0.5,0.1-1,0.2-1.1,0.6c-0.1,0.3,0,0.6,0.2,0.8c0.2,0.2,0.4,0.3,0.7,0.5&#10;&#9;&#9;c0.5,0.2,1.1,0.4,1.7,0.4c0.2,0.8,0.8,1.5,1.5,2c0.7,0.5,1.5,0.8,2.2,1.2c0.3,0.1,0.6,0.3,0.9,0.3c-0.1,2.1-0.6,4.1-1.1,6.1&#10;&#9;&#9;c-0.2,0.5-0.3,1.1-0.3,1.7c1.6,0.3,3.3,0.5,4.9,0.3c0.3-0.4,0.6-0.9,0.7-1.5c0.4-1.4-0.2-2.9-0.2-4.3c0.1-1.9,0.4-4-0.5-5.7&#10;&#9;&#9;C130.8,54.1,128.7,53.5,127.3,52.4z" id="el_q-v1ZZOUaU"/>
	<path d="M126.7,66.1c1.8-0.7,3.6-0.9,5.5-0.8c0.1,1,0.1,1.9,0.1,2.9c1.9-1,3.8-2.1,5.6-3.1c0.5-0.3,1.1-0.6,1.4-1.1&#10;&#9;&#9;c0.5-0.7,0.5-1.6,0.6-2.5c0.5-3.5,3.3-6,6-8.3c0.4-0.4,0.9-0.7,1.5-0.9c0.7-0.1,1.3,0.2,1.9,0.5c4.2,2.3,6.2,7.3,6.6,12&#10;&#9;&#9;c0.4,4.7-0.6,9.5-0.8,14.2c-0.2,3.4,0,6.8,0.2,10.2c0.3,6.1,0.6,12.1,0.9,18.2c-5.1,1.5-11-0.9-13.5-5.5c-0.6,1.9-1.3,3.8-2.7,5.2&#10;&#9;&#9;c-1.4,1.4-3.7,2.2-5.4,1.2c-2.3-1.3-2.2-4.7-1.9-7.3c0.8-6.8,1.2-13.7,1-20.6c-2.8-0.8-6.3,0.4-8.3-1.6c-1-1.1-1.2-2.7-1.2-4.2&#10;&#9;&#9;C124.3,71.9,125.8,68.6,126.7,66.1z" id="el_BqVW8_YIYS"/>
	<path d="M148.1,50.2c-0.2,0.1-7.3,6.6-7.3,6.6s0.1,4,0.3,4c0.3,0,9.1-3,9.1-3s0.9-2.4,0.6-2.8&#10;&#9;&#9;C150.5,54.7,148.1,50.2,148.1,50.2z" id="el_PfwUQlAJ7s"/>
	<path d="M123.7,45.2c-0.2-0.3-0.7-0.4-1-0.3s-0.6,0.5-0.7,0.9c-0.1,0.4,0,0.8,0,1.1c0.1,0.7,0.4,1.4,0.8,2&#10;&#9;&#9;c0.2,0.4,0.6,0.8,1,0.6c0.4-0.2,0.4-0.7,0.4-1.1c0.1,0.2,0.4,0.3,0.6,0.2c0.2-0.1,0.4-0.3,0.5-0.5c0.4-0.8,0.4-1.8,0.3-2.7&#10;&#9;&#9;c0-0.2,0-0.3,0-0.5c0.1-0.4,0.6-0.5,0.8-0.8c0.5-0.8-0.9-1.6-1.6-1.5C123.7,42.7,123.6,44.3,123.7,45.2z" id="el__n9_Lpt30X"/>
	<path d="M120.5,47.5c0,0.3-0.1,0.6,0,1c0,0.3,0.1,0.7,0.3,0.9c0.2,0.3,0.5,0.5,0.9,0.3c0.4-0.1,0.5-0.6,0.6-1&#10;&#9;&#9;c0.1-0.6,0-1.5-0.5-2C121.1,46.3,120.6,46.8,120.5,47.5z" id="el_Mqw9iGBGZq"/>
</g></g></g>
<g id="el_TsPXkOARR6f_oTZUqt9bU" data-animator-group="true" data-animator-type="1"><path d="M53.1,105.1c-2-2.1-4.1-5-2.5-7.6c1-1.6,2.9-2.2,4.7-1.8c3.4,0.9,5.1,3.9,6.6,6.7c-4.7-5.2-9.1-10.8-13.2-16.5&#10;&#9;c-1.9-2.6-3.7-5.7-4.7-8.7c-1.7-5.3,4.2-9.9,8.8-6.8c4.9,3.3,8.9,8.5,12.4,13.5c-2-10.3-3.9-21-1.1-31.1c0.7-2.7,2-5.4,4.6-6.6&#10;&#9;c1.1-0.5,2.5-0.5,3.6,0c2.1,1,2.2,2.9,2.3,4.7c0.2,5.8,0.3,11.6,0.1,17.4c0.4-4,2.8-7.8,6.2-9.9c0.9-0.6,2-1.1,3.1-1.1&#10;&#9;c2.2,0,4,1.8,4.8,3.8c0.7,2,0.6,4.3,0.4,6.5c-1.2,12.9-3.8,25.7-7.7,38c1.5-7.3,5.8-14.1,11.9-18.5c0.9-0.7,2-1.3,3.1-1.4&#10;&#9;c1.3,0,2.6,0.8,3.5,1.8c4.7,5.3,1.5,13.5-1.1,20.2c-5.8,15.1-6.6,32-2.2,47.6c1.2,4.3,2.8,22.2-7.6,17.6c-4.5-2-3.4-12.2-3.8-16.1&#10;&#9;C82.9,136.1,66.7,119.5,53.1,105.1z" id="el_TsPXkOARR6f"/></g>
<g id="el_D1wJ_F5f_M1_bMI6drs2z" data-animator-group="true" data-animator-type="1"><g id="el_D1wJ_F5f_M1_GzR1RLfcV" data-animator-group="true" data-animator-type="2"><path d="M75.7,176.5c-4.7-9.5-11.5-18-19.6-24.8c-2.1-1.7-4.3-3.4-5.7-5.7c-1.4-2.3-1.9-5.4-0.3-7.6&#10;&#9;c11.1,0.5,19.3,10.2,26,19.1c-7.2-15.9-15.6-31.2-25.2-45.8c-2.7-4.2-5.3-10.4-1.3-13.4c2.5-1.8,6.1-0.9,8.7,0.8&#10;&#9;c5.5,3.6,8.6,9.7,11.4,15.6c3.8,7.8,7.6,15.7,11.4,23.5c-6.1-21.3-12.2-42.7-15.5-64.6c-0.8-5.4-0.9-12.1,3.8-15&#10;&#9;c5.2-3.3,12.1,1.3,15,6.7c2.7,5.1,3.5,10.9,4.2,16.6c2.1,17.7,3.2,35.5,3.2,53.3c2.4-6.7,5.1-13.2,8.2-19.6c1.1-2.3,2.7-4.9,5.2-5.1&#10;&#9;c2-0.2,3.8,1.3,4.9,3c3.9,6.1,0.4,13.9-3.1,20.2c-3.9,7-7.7,14-11.6,21c3-2.1,6-4.1,9-6.2c1.5-1,3.3-2.1,5-1.5&#10;&#9;c3.2,1.1,2,5.9,0.2,8.9c-5.6,9.2-11.2,18.3-16.7,27.5c-5.3-0.2-9.7,0.1-15,0.4C76.1,181.7,76.9,178.9,75.7,176.5z" id="el_D1wJ_F5f_M1"/></g></g>
<script>(function(){var a=document.querySelector('#el_TgwVjHdOp'),b=a.querySelectorAll('style'),c=function(d){b.forEach(function(f){var g=f.textContent;g&amp;&amp;(f.textContent=g.replace(/transform-box:[^;\r\n]*/gi,'transform-box: '+d))})};c('initial'),window.requestAnimationFrame(function(){return c('fill-box')})})();</script></svg>